PathFileType	4	(X/Y/Z)	C:/Users/beibeiliu/ov580/test_trc/User3\sequence.16_training_dense_left.trc
DataRate	CameraRate	NumFrames	NumMarkers	Units	OrigDataRate	OrigDataStartFrame	OrigNumFrames
120	120	23	19	mm	120	34	266
Frame#	Time	ThumbCMC			ThumbMCP			ThumbIP			ThumbTip			IndexMCP			IndexPIP			IndexTip			MiddleMCP			MiddlePIP			MiddleTip			RingMCP			RingPIP			RingTip			PinkyMCP			PinkyPIP			PinkyTip			BackHand1			BackHand2			BackHand3	
		X0	Y0	Z0	X1	Y1	Z1	X2	Y2	Z2	X3	Y3	Z3	X4	Y4	Z4	X5	Y5	Z5	X6	Y6	Z6	X7	Y7	Z7	X8	Y8	Z8	X9	Y9	Z9	X10	Y10	Z10	X11	Y11	Z11	X12	Y12	Z12	X13	Y13	Z13	X14	Y14	Z14	X15	Y15	Z15	X16	Y16	Z16	X17	Y17	Z17	X18	Y18	Z18	
33	0.275	-162.147	-3.11058	20.4448	-144.239	-1.3754	-8.63083	-136.79	-1.30054	-40.674	-139.244	-8.72743	-60.4104	-182.276	17.0243	-51.4844	-167.578	7.31643	-79.3018	-145.015	-15.3394	-81.686	-194.139	7.51498	-63.3939	-176.059	-8.38476	-84.1117	-154.705	-33.8696	-66.0874	-203.749	-9.95865	-61.3324	-187.311	-27.9189	-76.2114	-168.194	-46.7586	-53.5453	-213.932	-31.781	-56.2874	-191.264	-43.958	-61.642	-177.756	-57.7178	-39.2485	-223.379	-5.23932	-5.83873	-225.06	-16.1601	21.3178	-202.179	7.52133	14.097	
34	0.283333	-166.188	-5.11885	19.1455	-145.825	-2.87805	-8.77128	-140.807	-2.20352	-37.9389	-146.452	-8.24089	-63.0361	-184.9	20.6194	-50.1639	-170.243	7.54237	-80.64	-152.763	-11.6944	-84.6445	-198.736	10.8526	-64.1078	-180.308	-7.7486	-84.9347	-158.982	-34.3265	-64.6996	-211.627	-7.95038	-60.4953	-189.385	-23.8753	-78.8016	-172.125	-44.944	-57.8687	-221.241	-28.2675	-51.2879	-196.973	-41.0911	-65.692	-180.068	-52.8578	-44.4823	-226.194	-4.6167	-4.76806	-227.844	-18.3783	25.3009	-204.855	6.51683	14.2394	
35	0.291667	-167.233	-7.4564	19.6878	-152.177	-3.08414	-12.7629	-147.693	-3.21179	-39.3982	-152.774	-9.73881	-64.4452	-189.343	22.4718	-51.2545	-172.677	11.6233	-80.9798	-156.925	-9.26902	-85.174	-206.661	9.2229	-64.2698	-184.871	-4.79625	-84.9437	-162.626	-31.9802	-69.4105	-217.118	-7.12242	-60.3413	-196.194	-23.1973	-80.2742	-177.792	-42.2316	-64.2718	-225.216	-24.9367	-56.0254	-203.263	-38.7057	-68.5009	-188.2	-54.5242	-52.3156	-232.524	-5.38045	-5.90187	-233.023	-18.7446	24.1173	-206.25	3.90156	16.248	
36	0.3	-170.477	-8.86102	18.5494	-157.37	-5.97304	-13.4948	-152.053	-5.68574	-40.5815	-154.126	-10.1093	-68.8717	-196.455	18.0038	-51.4065	-185.03	11.1112	-79.021	-165.429	-12.4884	-86.4654	-211.35	10.1632	-60.5306	-192.864	-1.42832	-85.5352	-173.35	-33.5403	-74.9336	-223.052	-6.77609	-57.2489	-206.769	-19.4159	-80.0412	-182.185	-43.2308	-65.0169	-228.909	-23.4281	-53.9348	-211.234	-34.9621	-68.9809	-193.038	-56.0061	-56.1613	-236.95	-10.1942	-2.42323	-235.734	-19.2822	24.2624	-209.746	2.47524	16.2891	
37	0.308333	-175.169	-10.8267	14.9081	-160.717	-7.62948	-16.3239	-154.917	-8.85379	-42.0375	-158.353	-13.6843	-69.6464	-199.949	15.8691	-56.3214	-186.694	7.05106	-82.2848	-165.567	-14.4421	-87.1065	-216.744	6.60138	-59.7927	-199.437	-5.76981	-86.7226	-179.482	-35.8681	-77.0936	-228.39	-9.31897	-58.1744	-207.762	-22.8	-81.5586	-189.601	-49.1981	-66.6348	-237.639	-26.4702	-49.6874	-220.169	-38.2489	-70.6847	-198.485	-53.3759	-63.1041	-236.086	-9.7938	0.154877	-240.644	-23.2021	25.062	-210.006	4.54958	15.0287	
38	0.316667	-179.267	-12.4739	13.5255	-159.763	-10.677	-16.6909	-155.955	-10.825	-46.6847	-164.172	-19.9658	-67.9981	-201.695	14.074	-54.1338	-186.23	4.88432	-84.0617	-170.408	-20.5263	-89.3981	-215.867	7.11179	-61.6258	-201.654	-9.87765	-88.6957	-180.982	-42.0767	-76.4983	-227.862	-9.98241	-60.726	-212.876	-26.5124	-82.7397	-193.315	-50.0249	-69.7082	-237.189	-28.3206	-52.6574	-223.489	-42.2911	-71.6016	-200.288	-62.6387	-59.9581	-240.558	-13.8808	-2.8299	-238.149	-20.8548	24.2298	-212.476	4.06781	14.4956	
39	0.325	-181.435	-13.8199	11.079	-166.251	-14.723	-17.2044	-160.836	-14.9681	-51.4636	-170.781	-24.8148	-76.288	-204.424	7.61721	-62.356	-192.509	-1.10112	-85.8421	-170.685	-27.0108	-91.0253	-221.97	-1.35947	-68.4424	-203.945	-18.1981	-90.964	-185.101	-45.1635	-80.2869	-229.794	-15.2842	-61.7061	-214.977	-34.6924	-82.8425	-194.964	-58.3852	-67.2599	-239.296	-33.8983	-55.749	-222.712	-48.5137	-71.098	-202.556	-65.8022	-55.8308	-241.25	-12.6241	-4.06058	-241.198	-24.5082	22.4556	-212.974	1.39615	13.2917	
40	0.333333	-177.662	-11.795	7.49329	-167.144	-15.2435	-22.8395	-162.614	-18.3342	-53.4422	-170.508	-30.1325	-77.0614	-208.16	0.748557	-65.6061	-192.985	-10.8947	-88.8158	-175.391	-34.5049	-92.5098	-223.328	-8.52446	-70.0114	-206.73	-24.6683	-92.6263	-180.176	-50.0979	-78.9104	-233.508	-25.2638	-63.9274	-216.492	-42.3535	-83.8371	-192.335	-62.1591	-65.7601	-239.969	-39.2257	-52.4249	-224.638	-56.6063	-69.9626	-201.213	-69.8492	-56.3958	-245.834	-18.6776	-9.36487	-241.676	-25.3655	22.0577	-218.12	-0.758347	9.51652	
41	0.341667	-179.964	-10.3626	7.00588	-167.904	-17.6509	-20.3389	-162.744	-22.6125	-56.2306	-173.203	-36.2322	-75.2869	-207.35	-4.74292	-65.44	-194.907	-17.7499	-89.7858	-175.107	-41.3762	-92.1039	-223.889	-18.046	-73.0295	-204.73	-34.6589	-93.7452	-181.375	-60.9856	-77.9302	-234.192	-34.8415	-64.0948	-213.58	-50.199	-82.7356	-189.713	-66.8036	-65.7832	-240.834	-50.9584	-54.4783	-220.525	-65.163	-68.1077	-197.771	-79.1349	-50.3846	-244.449	-22.9031	-9.46016	-240.081	-26.1954	20.4563	-217.792	-2.05745	7.75015	
42	0.35	-183.085	-12.1091	3.56343	-165.33	-15.6773	-23.104	-165.853	-27.2318	-54.0425	-169.983	-41.6311	-70.886	-205.795	-10.1362	-67.9529	-189.31	-29.0705	-91.133	-165.109	-49.7007	-89.3061	-220.432	-27.7005	-75.2972	-201.33	-46.4396	-92.6635	-170.915	-65.3467	-72.8563	-229.927	-44.3415	-63.8596	-209.844	-64.7563	-79.3948	-184.639	-74.2633	-61.4927	-236.592	-60.2771	-52.8292	-214.935	-73.1841	-65.7634	-191.894	-81.609	-49.1853	-243.447	-27.8797	-8.77313	-241.201	-30.4414	20.3071	-220.267	-5.46929	4.66523	
43	0.358333	-182.788	-10.4776	4.56385	-168.485	-18.069	-22.8699	-160.601	-27.5975	-49.3673	-164.982	-46.8805	-71.9019	-205.352	-22.5362	-69.4839	-186.522	-33.1486	-91.0114	-162.659	-52.7154	-89.1307	-217.689	-36.6332	-71.8895	-191.212	-52.943	-91.7021	-166.395	-69.7339	-70.9317	-222.691	-52.4512	-66.4488	-203.703	-69.689	-78.5427	-178.084	-81.7039	-56.7493	-228.412	-65.5296	-53.106	-208.795	-80.6294	-63.4106	-185.753	-86.8308	-49.0436	-241.315	-32.3822	-13.6705	-243.315	-35.6335	18.9263	-220.185	-6.85924	2.41719	
44	0.366667	-185.982	-11.955	5.88842	-163.811	-16.5351	-23.051	-155.964	-28.9707	-53.7995	-160.458	-48.9281	-66.9557	-200.18	-25.7244	-69.0912	-182.362	-40.8275	-89.3895	-153.767	-57.811	-84.0672	-210.807	-41.0489	-71.5044	-188.079	-59.1122	-88.6655	-156.152	-70.9614	-66.6873	-215.804	-61.4884	-65.8352	-194.661	-76.2013	-75.7889	-168.493	-84.0642	-52.4432	-222.494	-72.411	-47.3348	-197.472	-87.2711	-59.6762	-172.807	-87.1083	-43.7387	-238.249	-39.1718	-12.9178	-238.793	-34.971	15.8187	-221.486	-8.30856	-4.22347	
45	0.375	-185.077	-9.08478	2.65166	-163.303	-16.1995	-24.2021	-152.994	-29.7411	-45.7031	-148.531	-46.3754	-61.4562	-195.646	-30.7661	-70.1955	-172.145	-44.6276	-87.6108	-144.792	-55.5359	-80.5608	-202.344	-49.029	-73.4846	-174.799	-66.7069	-83.5435	-146.721	-70.648	-62.0161	-206.661	-63.0536	-62.5886	-182.57	-78.6737	-71.1614	-155.767	-81.2187	-45.1862	-210.698	-79.6764	-48.6341	-187.645	-91.3586	-55.102	-163.698	-90.1525	-42.0566	-236.147	-47.9511	-12.5459	-238.713	-38.0329	16.6567	-222.036	-13.0085	-3.9604	
46	0.383333	-186.399	-5.67153	-0.850189	-160.749	-10.9282	-21.9343	-148.04	-25.0174	-44.0774	-143.189	-47.0902	-59.1535	-191.929	-33.434	-69.0228	-168.93	-46.6051	-85.3389	-138.942	-55.403	-76.2017	-195.056	-51.9689	-72.3474	-162.847	-64.9611	-81.3198	-137.236	-66.4911	-57.0096	-198.956	-72.7667	-57.4364	-169.02	-79.5823	-66.1938	-146.255	-79.9463	-41.063	-199.454	-83.8924	-45.4177	-178.14	-89.5719	-51.9661	-153.528	-87.2628	-36.8552	-230.12	-49.9441	-15.0959	-235.266	-44.3937	16.7578	-221.674	-15.7487	-6.33235	
47	0.391667	-186.902	-2.92733	0.478507	-163.359	-10.7531	-20.3976	-142.857	-18.2276	-45.5604	-132.37	-36.4155	-57.5415	-185.746	-36.1393	-70.4225	-161.957	-42.2426	-83.2142	-130.169	-45.1294	-75.5744	-189.779	-54.4245	-67.7097	-157.035	-64.67	-77.7534	-127.552	-58.0964	-53.6506	-186.31	-73.7971	-57.3441	-158.799	-77.0713	-61.7175	-135.251	-71.8851	-36.7269	-190.183	-82.7263	-39.5183	-163.623	-88.5708	-46.1415	-139.665	-80.412	-32.2828	-223.904	-54.9672	-10.7664	-232.332	-46.5444	12.9146	-222.965	-18.6485	-7.55599	
48	0.4	-190.706	-1.19032	2.48824	-164.099	-5.24041	-18.9122	-141.876	-10.4311	-43.5448	-131.655	-32.2994	-54.3308	-182.728	-34.9512	-68.677	-154.693	-41.5957	-81.0666	-125.277	-39.0523	-72.4786	-182.211	-55.9075	-65.757	-147.554	-56.1687	-76.0325	-120.057	-46.7199	-50.0332	-179.822	-68.6254	-52.7557	-147.442	-75.7869	-55.9974	-127.158	-58.4338	-34.16	-177.148	-84.6181	-38.2856	-150.544	-82.4763	-42.9814	-130.786	-74.5852	-32.4151	-220.031	-59.2818	-10.486	-227.114	-51.8273	12.9877	-222.932	-25.3354	-6.10684	
49	0.408333	-190.439	2.71813	-2.13703	-165.822	-0.45314	-19.1741	-143.824	-6.18464	-40.744	-127.759	-23.4257	-53.9486	-176.633	-34.4036	-68.598	-147.086	-34.8842	-78.9446	-121.281	-28.8409	-69.8754	-175.173	-53.0964	-66.3467	-142.407	-53.1833	-72.2027	-114.887	-43.2833	-44.5833	-171.706	-69.4628	-51.8527	-139.657	-67.4878	-54.5222	-119.923	-55.7608	-32.3194	-174.232	-77.7086	-32.6367	-146.674	-76.4587	-40.501	-120.153	-68.111	-28.5435	-215.438	-59.6283	-13.6543	-223.571	-49.608	14.2547	-220.938	-24.655	-8.62228	
50	0.416667	-193.585	4.92825	2.87723	-166.027	4.84414	-19.9688	-144.174	-0.877207	-38.3792	-125.096	-13.6351	-52.3533	-176.772	-28.0828	-65.2215	-144.175	-33.4621	-76.3446	-119.436	-22.1919	-68.6857	-170.608	-50.4553	-63.5647	-137.276	-48.3272	-70.0309	-113.444	-36.5964	-45.328	-168.291	-64.6109	-49.3809	-133.887	-63.8512	-50.7955	-115.535	-46.4153	-28.8422	-163.926	-76.4365	-32.6264	-139.399	-75.7136	-36.0319	-118.474	-60.606	-28.3602	-212.077	-58.3813	-10.9627	-222.7	-53.3985	14.0712	-220.515	-25.477	-9.17225	
51	0.425	-196.032	6.47758	1.92419	-167.802	12.0876	-19.1807	-145.427	3.76686	-37.5223	-124.467	-10.4306	-51.8689	-172.488	-29.7551	-65.4457	-142.232	-27.9563	-75.4554	-115.038	-16.7464	-63.8029	-166.426	-48.0058	-62.4238	-135.859	-41.9436	-70.4788	-110.098	-26.4804	-38.5619	-162.248	-59.8841	-49.5333	-129.973	-54.9616	-51.0569	-113.573	-42.0196	-28.2516	-159.979	-75.6021	-28.7057	-131.945	-66.4565	-34.173	-117.13	-48.5419	-23.0757	-207.056	-57.7103	-12.8369	-218.717	-55.1492	15.5274	-220.367	-25.0509	-11.8498	
52	0.433333	-200.137	1.93958	-1.71242	-175.072	11.339	-18.6828	-147.237	8.45491	-43.9068	-127.648	-4.7033	-49.9665	-171.178	-31.1413	-62.8368	-141.129	-26.4774	-73.4657	-116.065	-10.7671	-60.9458	-158.999	-48.5346	-62.6895	-131.501	-36.9424	-68.0495	-112.979	-14.023	-40.0445	-156.939	-61.0213	-43.706	-126.913	-49.3948	-48.5081	-112.421	-30.9641	-24.6935	-153.152	-70.4887	-26.7867	-127.239	-58.0657	-30.6476	-111.965	-38.0165	-14.7833	-201.465	-58.7798	-12.4369	-218.176	-57.5507	17.522	-219.182	-28.7759	-14.3893	
53	0.441667	-206.636	4.25512	-1.65262	-179.612	12.9317	-25.4638	-153.862	13.3163	-44.4498	-133.847	2.03077	-48.617	-171.717	-30.0619	-62.416	-141.099	-20.8709	-73.5975	-121.608	-2.66056	-64.4731	-158.481	-42.5419	-62.6884	-127.653	-29.5868	-64.758	-115.435	-6.85758	-37.3172	-153.952	-53.3498	-46.0116	-125.488	-44.08	-46.3219	-114.033	-21.3442	-28.0294	-151.482	-63.215	-25.9378	-126.694	-49.0255	-30.5777	-115.114	-28.2756	-15.6505	-200.544	-62.727	-6.64923	-215.003	-57.8639	16.339	-219.841	-31.3767	-14.8973	
54	0.45	-211.3	0.519857	-7.07019	-189.169	12.1256	-24.9052	-163.412	15.0849	-45.4456	-141.309	6.94687	-49.8476	-172.143	-31.1675	-62.2643	-141.462	-17.3925	-74.3546	-126.549	2.81717	-65.381	-157.421	-45.5911	-57.7431	-129.944	-24.2017	-63.6835	-121.892	2.52755	-37.8732	-150.92	-53.8391	-40.5347	-122.651	-37.3635	-43.4176	-118.349	-12.4845	-27.128	-146.333	-58.3991	-24.7227	-125.466	-42.4987	-28.9438	-120.344	-18.7858	-14.3895	-195.85	-63.6799	-5.94149	-210.29	-59.0692	21.4459	-219.552	-34.959	-11.6686	
55	0.458333	-215.673	-3.02942	-5.6284	-194.579	11.3615	-29.364	-171.036	13.0018	-45.7557	-146.277	11.2926	-56.2733	-176.105	-33.2561	-60.7143	-147.809	-18.6515	-74.3053	-132.167	5.83071	-66.4714	-160.807	-43.7591	-58.8418	-133.99	-22.0412	-66.9181	-126.44	2.78013	-42.2055	-155.259	-50.8254	-41.173	-124.551	-31.2331	-45.3678	-122.294	-6.94379	-28.8207	-146.86	-57.2167	-22.568	-128.806	-40.2723	-31.1103	-121.203	-12.2961	-13.8993	-196.098	-60.7235	-4.75188	-211.186	-58.2621	18.6968	-223.426	-40.2857	-8.74779	
